<?xml version="1.0" encoding="UTF-8"?>
<svg id="Calque_1" xmlns="http://www.w3.org/2000/svg" version="1.1" viewBox="0 0 1282.7 423.4">
  <!-- Generator: Adobe Illustrator 29.8.4, SVG Export Plug-In . SVG Version: 2.1.1 Build 6)  -->
  <defs>
    <style>
      .st0 {
        fill: #b3dfff;
      }

      .st1 {
        fill: #f7f2f3;
      }

      .st2 {
        fill: #2b8fcc;
      }

      .st3 {
        fill: #f7f6f3;
      }

      .st4 {
        fill: #f9f4f4;
      }

      .st5 {
        fill: #32557d;
      }
    </style>
  </defs>
  <g>
    <path class="st0" d="M300.7,140.1l-1.9,2.9c-49.5,22.3-45.7,86.1,2.4,106.8l.5,2.3c-7.7,2.8-16.3,5.4-24.5,6-14,1.1-36.7-1.9-48.4,4.6-9.8,5.4-18.3,13.4-27.8,19.2-18.7,11.5-5.6-16-7.4-24.7-22.6-5-43.2-23.1-48.4-46.1-8.8-38.8,23.3-72.4,61-75.1s55.8-1.6,77.1,0c5.7.4,12.2,1.9,17.5,4Z"/>
    <path class="st5" d="M303.7,140.1c2.7-.9,5.1-2,8-2.5,17.7-3.2,78.6-3.6,95.9.2,32.5,7,57.3,37.6,50.7,71.4-4.7,24.1-25.7,43.4-49.5,48-1,6.1,10.3,32.9-3.4,26.8-9.8-4.4-27.4-22.3-36.6-24.4s-13.8-1.2-18.5-1.5c-16.1-.8-32.2,1.3-47.5-6l1.5-2.9c45.8-23,47.8-83.2.7-106l-1.2-3Z"/>
    <path class="st2" d="M303.7,140.1c12.7,7.5,22.9,13.8,30.4,27.1,18.5,32.7,1,70.1-31.4,84.9-.3,0-.7,0-1,0-3.7-.8-16.2-9.2-19.5-12-35.3-30.2-24.1-84,18.5-100,.7-.3,2.2.2,3,0Z"/>
    <path class="st4" d="M228.5,184.3c13-2.8,15.6,14.2,4.3,16.4s-14.1-14.3-4.3-16.4Z"/>
    <path class="st4" d="M196.5,184.3c12.3-2.7,13.7,14.8,3.5,16.6s-13.9-14.4-3.5-16.6Z"/>
    <path class="st3" d="M368.5,184.3c13-2.7,14.6,20.5-1.8,15.4-7.8-2.4-5.5-13.9,1.8-15.4Z"/>
    <path class="st1" d="M402.5,184.3c9.3-1.2,13,13.1,4.5,15.6-14,4.1-16.4-14-4.5-15.6Z"/>
  </g>
  <path class="st2" d="M529.7,175.9v21.3h32.6v-21.3c0-3,.7-5.3,2.1-6.9s3.2-2.3,5.4-2.3,4.1.8,5.5,2.3c1.4,1.5,2.1,3.8,2.1,6.9v58.7c0,3.1-.7,5.4-2.1,6.9s-3.2,2.3-5.5,2.3-4.1-.8-5.4-2.3c-1.4-1.5-2-3.8-2-6.9v-25h-32.6v25c0,3.1-.7,5.4-2.1,6.9s-3.2,2.3-5.5,2.3-4.1-.8-5.4-2.3c-1.4-1.5-2-3.8-2-6.9v-58.7c0-3,.7-5.3,2-6.9,1.3-1.5,3.2-2.3,5.5-2.3s4.1.8,5.5,2.3c1.4,1.5,2.1,3.8,2.1,6.9Z"/>
  <path class="st2" d="M628.5,235.9v-1.8c-1.7,2.1-3.4,3.9-5.2,5.3s-3.8,2.5-6,3.2c-2.2.7-4.6,1-7.4,1s-6.4-.7-9-2.1c-2.7-1.4-4.7-3.3-6.2-5.7-1.7-2.9-2.6-7.2-2.6-12.7v-27.5c0-2.8.6-4.8,1.9-6.2,1.3-1.4,2.9-2.1,5-2.1s3.8.7,5.1,2.1c1.3,1.4,1.9,3.5,1.9,6.2v22.2c0,3.2.3,5.9.8,8.1.5,2.2,1.5,3.9,2.9,5.1,1.4,1.2,3.3,1.9,5.7,1.9s4.5-.7,6.6-2.1c2.1-1.4,3.6-3.2,4.5-5.4.8-2,1.2-6.3,1.2-12.9v-16.9c0-2.7.6-4.8,1.9-6.2,1.3-1.4,3-2.1,5-2.1s3.7.7,5,2.1c1.3,1.4,1.9,3.4,1.9,6.2v40.2c0,2.6-.6,4.6-1.8,5.9-1.2,1.3-2.8,2-4.6,2s-3.5-.7-4.7-2.1c-1.2-1.4-1.9-3.3-1.9-5.8Z"/>
  <path class="st2" d="M701.4,216.5v18.4c0,2.9-.7,5.1-2,6.6s-3.1,2.2-5.2,2.2-3.8-.7-5.1-2.2c-1.3-1.5-2-3.6-2-6.6v-22.1c0-3.5-.1-6.2-.4-8.1-.2-1.9-.9-3.5-1.9-4.7-1-1.2-2.7-1.9-5-1.9-4.5,0-7.5,1.6-9,4.7-1.4,3.1-2.2,7.6-2.2,13.4v18.7c0,2.9-.7,5.1-2,6.5-1.3,1.5-3,2.2-5.2,2.2s-3.8-.7-5.2-2.2c-1.3-1.5-2-3.6-2-6.5v-39.7c0-2.6.6-4.6,1.8-5.9,1.2-1.4,2.8-2,4.7-2s3.5.6,4.7,1.9,1.9,3,1.9,5.3v1.3c2.4-2.9,5-5,7.7-6.3,2.7-1.4,5.8-2,9.1-2s6.5.7,9,2.1c2.5,1.4,4.6,3.5,6.2,6.3,2.3-2.8,4.8-5,7.5-6.3,2.7-1.4,5.6-2.1,8.9-2.1s7.1.7,9.8,2.2c2.7,1.5,4.8,3.6,6.1,6.4,1.2,2.5,1.8,6.4,1.8,11.8v27.1c0,2.9-.7,5.1-2,6.6s-3.1,2.2-5.2,2.2-3.8-.7-5.2-2.2c-1.3-1.5-2-3.6-2-6.5v-23.3c0-3-.1-5.4-.4-7.2-.3-1.8-.9-3.3-2.1-4.5s-2.8-1.8-5.1-1.8-3.6.5-5.2,1.6c-1.6,1.1-2.9,2.5-3.8,4.4-1,2.3-1.5,6.5-1.5,12.4Z"/>
  <path class="st2" d="M782.4,235.9c-3.4,2.6-6.6,4.6-9.7,5.9-3.1,1.3-6.6,2-10.5,2s-6.7-.7-9.4-2.1-4.8-3.3-6.2-5.7c-1.5-2.4-2.2-5-2.2-7.8s1.2-7,3.6-9.7c2.4-2.7,5.7-4.5,9.9-5.4.9-.2,3.1-.7,6.6-1.4,3.5-.7,6.5-1.4,9-2,2.5-.6,5.2-1.3,8.1-2.2-.2-3.7-.9-6.3-2.2-8-1.3-1.7-4-2.6-8.1-2.6s-6.2.5-7.9,1.5c-1.8,1-3.3,2.5-4.6,4.4-1.3,2-2.2,3.3-2.7,3.9-.5.6-1.7.9-3.4.9s-2.9-.5-4-1.5c-1.1-1-1.7-2.3-1.7-3.8,0-2.4.9-4.8,2.6-7.1,1.7-2.3,4.4-4.2,8.1-5.7,3.7-1.5,8.2-2.2,13.7-2.2s10.9.7,14.4,2.2c3.5,1.4,5.9,3.7,7.4,6.8,1.4,3.1,2.2,7.2,2.2,12.4s0,6,0,8.3c0,2.3,0,4.8,0,7.6,0,2.6.4,5.3,1.3,8.2.9,2.8,1.3,4.6,1.3,5.5,0,1.4-.7,2.7-2,3.9-1.3,1.2-2.9,1.8-4.5,1.8s-2.8-.7-4.2-2c-1.4-1.3-2.9-3.3-4.4-5.8ZM781.5,215.8c-2,.7-5,1.5-8.9,2.4-3.9.8-6.6,1.4-8,1.8-1.5.4-2.9,1.2-4.3,2.3-1.4,1.1-2,2.7-2,4.7s.8,3.9,2.4,5.4c1.6,1.5,3.7,2.2,6.2,2.2s5.3-.6,7.6-1.8c2.3-1.2,4-2.8,5.1-4.6,1.3-2.1,1.9-5.6,1.9-10.4v-2Z"/>
  <path class="st2" d="M821.8,195v1.7c2.4-3.2,5.1-5.6,8-7.1,2.9-1.5,6.2-2.3,10-2.3s6.9.8,9.8,2.4c2.9,1.6,5,3.8,6.4,6.8.9,1.7,1.5,3.5,1.8,5.5.3,2,.4,4.5.4,7.5v25.8c0,2.8-.6,4.9-1.9,6.3s-2.9,2.1-5,2.1-3.7-.7-5-2.2c-1.3-1.5-1.9-3.5-1.9-6.2v-23.1c0-4.6-.6-8.1-1.9-10.5-1.3-2.4-3.8-3.6-7.6-3.6s-4.7.7-6.8,2.2-3.5,3.5-4.5,6.1c-.7,2.1-1,5.9-1,11.6v17.4c0,2.8-.7,4.9-2,6.3-1.3,1.4-3,2.1-5.1,2.1s-3.6-.7-4.9-2.2c-1.3-1.5-1.9-3.5-1.9-6.2v-40.1c0-2.6.6-4.6,1.7-5.9,1.2-1.3,2.7-2,4.7-2s2.3.3,3.3.9c1,.6,1.8,1.4,2.4,2.6.6,1.2.9,2.6.9,4.2Z"/>
  <path class="st2" d="M879,180.9c-1.9,0-3.6-.6-5-1.8-1.4-1.2-2.1-2.9-2.1-5s.7-3.6,2.1-4.8c1.4-1.3,3-1.9,4.9-1.9s3.4.6,4.8,1.7c1.4,1.2,2.1,2.8,2.1,5s-.7,3.8-2,5c-1.4,1.2-3,1.8-4.8,1.8ZM885.8,195.2v40.1c0,2.8-.7,4.9-2,6.3s-3,2.1-5,2.1-3.7-.7-5-2.2-1.9-3.5-1.9-6.2v-39.7c0-2.7.6-4.8,1.9-6.2,1.3-1.4,2.9-2.1,5-2.1s3.7.7,5,2.1c1.3,1.4,2,3.3,2,5.8Z"/>
  <path class="st2" d="M915.9,175.9v54.2h30.6c2.4,0,4.3.6,5.6,1.8,1.3,1.2,2,2.7,2,4.5s-.6,3.3-1.9,4.4c-1.3,1.1-3.2,1.7-5.6,1.7h-36.4c-3.3,0-5.6-.7-7.1-2.2-1.4-1.5-2.2-3.8-2.2-7.1v-57.3c0-3,.7-5.3,2.1-6.9s3.2-2.3,5.4-2.3,4.1.8,5.5,2.3c1.4,1.5,2.1,3.8,2.1,6.9Z"/>
  <path class="st2" d="M970,180.9c-1.9,0-3.6-.6-5-1.8-1.4-1.2-2.1-2.9-2.1-5s.7-3.6,2.1-4.8c1.4-1.3,3-1.9,4.9-1.9s3.4.6,4.8,1.7c1.4,1.2,2.1,2.8,2.1,5s-.7,3.8-2,5c-1.4,1.2-3,1.8-4.8,1.8ZM976.8,195.2v40.1c0,2.8-.7,4.9-2,6.3s-3,2.1-5,2.1-3.7-.7-5-2.2-1.9-3.5-1.9-6.2v-39.7c0-2.7.6-4.8,1.9-6.2,1.3-1.4,2.9-2.1,5-2.1s3.7.7,5,2.1c1.3,1.4,2,3.3,2,5.8Z"/>
  <path class="st2" d="M1029.9,218.9h-27.1c0,3.1.7,5.9,1.9,8.3,1.2,2.4,2.9,4.2,4.9,5.4,2,1.2,4.3,1.8,6.8,1.8s3.2-.2,4.5-.6c1.4-.4,2.7-1,4-1.8,1.3-.8,2.5-1.7,3.6-2.7,1.1-.9,2.5-2.2,4.2-3.9.7-.6,1.7-.9,3-.9s2.6.4,3.5,1.2c.9.8,1.3,1.9,1.3,3.3s-.5,2.7-1.5,4.4c-1,1.7-2.5,3.3-4.4,4.8-2,1.5-4.5,2.8-7.5,3.8s-6.4,1.5-10.3,1.5c-8.9,0-15.8-2.5-20.8-7.6-4.9-5.1-7.4-12-7.4-20.7s.6-7.9,1.8-11.4,3-6.5,5.3-9c2.3-2.5,5.2-4.4,8.6-5.8,3.4-1.3,7.2-2,11.4-2s10.1,1.1,13.9,3.4c3.9,2.3,6.8,5.2,8.7,8.9,1.9,3.6,2.9,7.3,2.9,11.1s-1,5.7-3,6.8c-2,1-4.8,1.5-8.4,1.5ZM1002.7,211.1h25.1c-.3-4.7-1.6-8.3-3.8-10.6-2.2-2.4-5.1-3.5-8.8-3.5s-6.3,1.2-8.5,3.6c-2.2,2.4-3.6,5.9-4,10.6Z"/>
  <path class="st2" d="M1065.6,195v1.7c2.4-3.2,5.1-5.6,8-7.1,2.9-1.5,6.2-2.3,10-2.3s6.9.8,9.8,2.4c2.9,1.6,5,3.8,6.4,6.8.9,1.7,1.5,3.5,1.8,5.5.3,2,.4,4.5.4,7.5v25.8c0,2.8-.6,4.9-1.9,6.3s-2.9,2.1-5,2.1-3.7-.7-5-2.2c-1.3-1.5-1.9-3.5-1.9-6.2v-23.1c0-4.6-.6-8.1-1.9-10.5-1.3-2.4-3.8-3.6-7.6-3.6s-4.7.7-6.8,2.2-3.5,3.5-4.5,6.1c-.7,2.1-1,5.9-1,11.6v17.4c0,2.8-.7,4.9-2,6.3-1.3,1.4-3,2.1-5.1,2.1s-3.6-.7-4.9-2.2c-1.3-1.5-1.9-3.5-1.9-6.2v-40.1c0-2.6.6-4.6,1.7-5.9,1.2-1.3,2.7-2,4.7-2s2.3.3,3.3.9c1,.6,1.8,1.4,2.4,2.6.6,1.2.9,2.6.9,4.2Z"/>
  <path class="st2" d="M1160.4,225.6c0,3.8-.9,7.1-2.8,9.8-1.9,2.7-4.6,4.8-8.3,6.2-3.6,1.4-8.1,2.1-13.3,2.1s-9.2-.8-12.8-2.3-6.2-3.4-7.9-5.7c-1.7-2.3-2.5-4.6-2.5-6.9s.5-2.8,1.6-3.9,2.5-1.6,4.1-1.6,2.6.4,3.4,1.1c.8.7,1.5,1.7,2.2,3,1.4,2.5,3.1,4.3,5.1,5.5s4.7,1.8,8.1,1.8,5.1-.6,6.8-1.9c1.8-1.2,2.7-2.6,2.7-4.2,0-2.4-.9-4.2-2.8-5.3-1.8-1.1-4.9-2.2-9.1-3.2-4.8-1.2-8.7-2.4-11.7-3.7-3-1.3-5.4-3-7.2-5.2-1.8-2.1-2.7-4.8-2.7-7.9s.8-5.4,2.5-7.9c1.7-2.5,4.1-4.4,7.3-5.9,3.2-1.5,7.1-2.2,11.7-2.2s6.8.4,9.7,1.1c2.9.7,5.2,1.7,7.2,3,1.9,1.3,3.4,2.6,4.4,4.2,1,1.5,1.5,3,1.5,4.5s-.5,2.9-1.6,3.9-2.6,1.5-4.5,1.5-2.6-.4-3.6-1.2c-1-.8-2.1-2-3.4-3.7-1-1.4-2.3-2.4-3.7-3.2s-3.4-1.2-5.8-1.2-4.6.5-6.2,1.6c-1.7,1.1-2.5,2.4-2.5,4s.6,2.6,1.8,3.6c1.2.9,2.9,1.7,4.9,2.3,2.1.6,4.9,1.4,8.5,2.2,4.3,1,7.8,2.3,10.5,3.8,2.7,1.5,4.8,3.2,6.2,5.2,1.4,2,2.1,4.2,2.1,6.8Z"/>
</svg>